<svg xmlns="http://www.w3.org/2000/svg" width="1280" height="320" viewBox="0 0 1280 320" role="img" aria-labelledby="title desc">
  <title id="title">foac README header for GitHub light mode</title>
  <desc id="desc">The foac Merge icon, lowercase wordmark, and the line many services, many agents, one door.</desc>
  <g transform="translate(176 64) scale(.375)" fill="none" stroke="#b54708" stroke-width="64" stroke-linecap="square" stroke-linejoin="miter">
    <path d="M64 96H160L256 256H448"/><path d="M64 256H448"/><path d="M64 416H160L256 256"/>
  </g>
  <g transform="translate(416 20) scale(.7)" fill="none" stroke="#0d1117" stroke-width="56" stroke-linecap="square" stroke-linejoin="round">
    <path d="M168 64H112C80 64 64 80 64 112V320M24 160H184"/>
    <rect x="232" y="144" width="184" height="176" rx="88"/><rect x="472" y="144" width="184" height="176" rx="88"/>
    <path d="M656 144V320"/><path d="M912 184C888 156 860 144 824 144C752 144 712 184 712 232S752 320 824 320C860 320 888 308 912 280"/>
  </g>
  <text x="446" y="286" fill="#57606a" font-family="ui-monospace, SFMono-Regular, Menlo, Consolas, monospace" font-size="22" letter-spacing="1.2">many services · many agents · one door</text>
</svg>
